<?xml version="1.0" standalone="no"?>
<!DOCTYPE svg PUBLIC "-//W3C//DTD SVG 20010904//EN"
 "http://www.w3.org/TR/2001/REC-SVG-20010904/DTD/svg10.dtd">
<svg version="1.0" xmlns="http://www.w3.org/2000/svg"
 width="86.000000pt" height="88.000000pt" viewBox="0 0 86.000000 88.000000"
 preserveAspectRatio="xMidYMid meet">
<metadata>
Created by potrace 1.15, written by Peter Selinger 2001-2017
</metadata>
<g transform="translate(0.000000,88.000000) scale(0.100000,-0.100000)"
fill="#000000" stroke="none">
<path d="M28 849 c-17 -9 -18 -40 -18 -409 l0 -399 22 -15 c34 -24 762 -24
796 0 l22 15 0 393 c0 368 -1 394 -18 409 -17 15 -59 17 -403 17 -242 0 -390
-4 -401 -11z m770 -411 l2 -368 -370 0 -370 0 0 363 c0 200 3 367 7 370 4 4
169 6 367 5 l361 -3 3 -367z"/>
<path d="M260 630 c-108 -113 -160 -175 -158 -187 3 -15 15 -19 70 -21 l67 -3
3 -157 3 -157 190 0 190 0 3 157 3 157 72 3 c58 2 72 6 75 20 4 22 -314 358
-338 358 -10 0 -91 -76 -180 -170z m305 -22 c64 -68 110 -124 103 -125 -7 -1
-30 -4 -50 -8 l-37 -6 -3 -157 -3 -157 -137 -3 -138 -3 0 148 c0 81 -4 154 -9
162 -5 7 -26 15 -47 18 -21 2 -40 5 -41 7 -5 5 228 246 237 246 4 0 60 -55
125 -122z"/>
</g>
</svg>
