<?xml version="1.0" standalone="no"?>
<!DOCTYPE svg PUBLIC "-//W3C//DTD SVG 20010904//EN"
 "http://www.w3.org/TR/2001/REC-SVG-20010904/DTD/svg10.dtd">
<svg version="1.0" xmlns="http://www.w3.org/2000/svg"
 width="86.000000pt" height="86.000000pt" viewBox="0 0 86.000000 86.000000"
 preserveAspectRatio="xMidYMid meet">
<metadata>
Created by potrace 1.15, written by Peter Selinger 2001-2017
</metadata>
<g transform="translate(0.000000,86.000000) scale(0.100000,-0.100000)"
fill="#000000" stroke="none">
<path d="M32 844 l-22 -15 0 -393 c0 -368 1 -394 18 -409 17 -15 59 -17 405
-17 l386 0 15 22 c14 19 16 75 16 410 l0 387 -22 15 c-19 14 -74 16 -398 16
-324 0 -379 -2 -398 -16z m758 -44 c7 -4 9 -119 8 -371 l-3 -364 -365 0 -365
0 -3 364 c-2 279 1 366 10 372 15 9 703 9 718 -1z"/>
<path d="M260 762 c-111 -55 -110 -53 -115 -279 l-4 -192 26 -31 c35 -43 97
-72 198 -95 l30 -7 -27 -14 c-16 -8 -28 -23 -28 -33 0 -25 66 -35 123 -20 36
9 100 48 117 69 3 4 27 15 53 25 48 18 88 60 88 92 0 10 -1 55 -3 99 -2 45 -1
90 3 100 3 11 2 32 -2 47 -5 17 -4 38 3 52 16 35 -5 76 -55 113 -54 39 -101
51 -210 54 -69 2 -86 6 -82 17 6 15 -12 41 -29 41 -6 0 -45 -17 -86 -38z m18
-80 c-16 -41 -5 -59 53 -92 35 -19 62 -25 132 -28 97 -5 121 6 90 40 -22 24
-76 38 -148 38 -69 0 -89 9 -79 34 6 17 19 18 125 14 109 -4 121 -6 166 -34
39 -25 48 -35 48 -59 0 -47 -47 -67 -170 -73 -114 -5 -192 11 -257 54 -40 26
-49 56 -28 95 9 16 69 51 77 44 2 -1 -3 -16 -9 -33z m105 -213 c80 -13 207 0
260 28 28 14 28 14 25 -9 -2 -16 -18 -30 -53 -48 -43 -22 -62 -25 -145 -24
-106 1 -187 24 -246 69 -58 44 -43 58 27 25 34 -16 93 -34 132 -41z m-157 -48
c5 -5 36 -19 69 -32 79 -30 267 -34 329 -6 69 31 60 -11 -10 -47 -58 -31 -226
-29 -307 3 -57 22 -117 64 -117 82 0 11 23 12 36 0z m14 -111 c100 -51 268
-65 367 -30 60 21 74 19 57 -8 -30 -49 -169 -75 -286 -53 -83 16 -162 54 -176
86 -14 30 -12 30 38 5z"/>
</g>
</svg>
