<?xml version="1.0" standalone="no"?>
<!DOCTYPE svg PUBLIC "-//W3C//DTD SVG 20010904//EN"
 "http://www.w3.org/TR/2001/REC-SVG-20010904/DTD/svg10.dtd">
<svg version="1.0" xmlns="http://www.w3.org/2000/svg"
 width="86.000000pt" height="86.000000pt" viewBox="0 0 86.000000 86.000000"
 preserveAspectRatio="xMidYMid meet">
<metadata>
Created by potrace 1.15, written by Peter Selinger 2001-2017
</metadata>
<g transform="translate(0.000000,86.000000) scale(0.100000,-0.100000)"
fill="#000000" stroke="none">
<path d="M26 834 c-14 -13 -16 -65 -16 -409 0 -392 0 -394 22 -409 18 -13 78
-15 399 -16 367 0 379 0 399 20 19 19 20 32 20 408 0 364 -1 390 -18 405 -17
15 -59 17 -405 17 -337 0 -388 -2 -401 -16z m772 -406 l2 -368 -370 0 -370 0
0 370 0 370 368 -2 367 -3 3 -367z"/>
<path d="M127 628 c-60 -189 -58 -181 -49 -194 7 -11 278 -74 320 -74 29 0 29
27 1 82 -17 33 -18 42 -7 49 38 24 103 1 125 -45 14 -30 14 -39 3 -66 -14 -34
-62 -70 -92 -70 -24 0 -31 -34 -26 -130 4 -94 11 -103 78 -94 70 10 131 40
187 96 72 71 96 131 97 238 0 101 -21 155 -91 225 -74 76 -111 90 -233 90 -89
0 -111 -3 -146 -22 l-41 -22 -22 40 c-40 71 -54 57 -104 -103z m405 46 c62
-21 121 -74 152 -136 33 -65 36 -170 7 -233 -34 -76 -146 -164 -208 -165 -21
0 -23 4 -23 58 1 57 1 57 46 84 90 55 99 163 20 237 -19 18 -41 26 -79 29 -87
7 -145 -36 -118 -87 6 -11 11 -24 11 -29 0 -8 -194 29 -205 39 -2 3 10 49 27
103 31 97 32 98 49 77 18 -22 48 -28 65 -11 22 22 111 49 160 50 28 0 71 -7
96 -16z"/>
</g>
</svg>
