<?xml version="1.0" standalone="no"?>
<!DOCTYPE svg PUBLIC "-//W3C//DTD SVG 20010904//EN"
 "http://www.w3.org/TR/2001/REC-SVG-20010904/DTD/svg10.dtd">
<svg version="1.0" xmlns="http://www.w3.org/2000/svg"
 width="86.000000pt" height="86.000000pt" viewBox="0 0 86.000000 86.000000"
 preserveAspectRatio="xMidYMid meet">
<metadata>
Created by potrace 1.15, written by Peter Selinger 2001-2017
</metadata>
<g transform="translate(0.000000,86.000000) scale(0.100000,-0.100000)"
fill="#000000" stroke="none">
<path d="M60 853 c-51 -10 -50 1 -50 -419 0 -344 2 -395 16 -408 13 -14 64
-16 403 -16 363 0 389 1 404 18 15 17 17 60 17 409 0 351 -2 392 -17 404 -13
11 -88 14 -382 15 -201 1 -377 0 -391 -3z m738 -420 l-3 -368 -367 -3 -368 -2
0 370 0 370 370 0 370 0 -2 -367z"/>
<path d="M335 774 c-55 -20 -131 -97 -150 -153 -31 -92 -15 -194 42 -260 23
-28 33 -49 33 -74 0 -19 9 -45 20 -59 11 -14 18 -34 15 -46 -5 -29 22 -61 69
-83 52 -23 100 -24 151 0 51 23 66 42 67 83 0 18 7 40 15 49 8 10 14 35 15 57
0 28 7 47 20 59 44 39 63 94 63 178 0 87 -17 132 -71 189 -65 68 -193 95 -289
60z m202 -64 c127 -73 147 -238 41 -342 -154 -151 -407 11 -348 222 13 48 78
118 126 136 51 19 133 12 181 -16z"/>
</g>
</svg>
