<?xml version="1.0" standalone="no"?>
<!DOCTYPE svg PUBLIC "-//W3C//DTD SVG 20010904//EN"
 "http://www.w3.org/TR/2001/REC-SVG-20010904/DTD/svg10.dtd">
<svg version="1.0" xmlns="http://www.w3.org/2000/svg"
 width="67.000000pt" height="68.000000pt" viewBox="0 0 67.000000 68.000000"
 preserveAspectRatio="xMidYMid meet">
<metadata>
Created by potrace 1.15, written by Peter Selinger 2001-2017
</metadata>
<g transform="translate(0.000000,68.000000) scale(0.100000,-0.100000)"
fill="#000000" stroke="none">
<path d="M17 668 c-16 -12 -17 -37 -15 -333 l3 -320 315 -3 c287 -2 316 -1
328 15 9 13 12 93 12 319 0 268 -2 303 -17 315 -23 20 -600 26 -626 7z m598
-328 l0 -285 -290 0 -290 0 -3 288 -2 287 292 -2 293 -3 0 -285z"/>
<path d="M83 573 c-10 -3 -13 -59 -13 -228 0 -248 -4 -235 70 -235 48 0 58 13
62 80 l3 55 47 5 c56 7 101 44 119 97 8 27 16 33 32 31 21 -3 22 -9 25 -122 1
-67 7 -126 14 -133 13 -16 90 -17 106 -1 9 9 12 72 12 220 l0 208 -24 11 c-33
16 -75 3 -86 -25 -17 -46 -77 -50 -102 -7 -11 20 -29 33 -55 40 -38 11 -187
14 -210 4z m228 -62 c26 -27 29 -36 29 -94 0 -56 -4 -70 -26 -96 -23 -28 -31
-31 -85 -31 l-59 0 0 -70 0 -70 -35 0 -35 0 0 195 0 195 91 0 c87 0 92 -1 120
-29z m214 -171 l0 -185 -32 -3 -32 -3 -3 133 -3 133 -32 3 c-43 4 -46 37 -5
47 32 8 62 33 62 52 0 9 8 13 23 11 22 -3 22 -4 22 -188z"/>
</g>
</svg>
