<?xml version="1.0" standalone="no"?>
<!DOCTYPE svg PUBLIC "-//W3C//DTD SVG 20010904//EN"
 "http://www.w3.org/TR/2001/REC-SVG-20010904/DTD/svg10.dtd">
<svg version="1.0" xmlns="http://www.w3.org/2000/svg"
 width="67.000000pt" height="68.000000pt" viewBox="0 0 67.000000 68.000000"
 preserveAspectRatio="xMidYMid meet">
<metadata>
Created by potrace 1.15, written by Peter Selinger 2001-2017
</metadata>
<g transform="translate(0.000000,68.000000) scale(0.100000,-0.100000)"
fill="#000000" stroke="none">
<path d="M17 663 c-16 -4 -17 -26 -15 -331 l3 -327 312 -3 c273 -2 313 0 327
14 14 13 16 55 16 319 0 263 -2 306 -16 319 -13 14 -55 16 -312 15 -163 -1
-305 -3 -315 -6z m591 -45 c7 -7 12 -40 12 -77 l0 -66 -31 37 c-52 65 -147 72
-206 16 -23 -22 -25 -22 -35 -5 -18 33 -71 47 -172 47 -84 0 -97 -2 -106 -19
-6 -12 -10 -101 -10 -219 0 -183 2 -200 19 -216 15 -13 29 -16 62 -11 24 4 47
9 51 11 5 3 8 31 8 63 l0 58 45 5 c56 7 91 29 112 73 15 32 21 35 57 35 l41 0
-42 -35 c-43 -37 -71 -93 -75 -154 -4 -50 17 -57 162 -55 l121 2 -3 -32 -3
-31 -290 0 -290 0 -3 284 c-2 221 1 286 10 293 22 13 552 10 566 -4z m-315
-99 c33 -15 47 -49 47 -110 0 -55 -20 -103 -49 -119 -11 -5 -42 -10 -70 -10
l-50 0 -3 -67 -3 -68 -32 -3 -33 -3 0 195 0 196 85 0 c46 0 95 -5 108 -11z
m265 -25 c21 -24 24 -35 20 -91 -4 -62 -5 -65 -61 -121 -31 -32 -57 -61 -57
-65 0 -4 27 -7 60 -7 l60 0 0 -35 0 -35 -105 0 c-77 0 -105 3 -105 13 0 44 27
94 80 148 58 60 71 88 63 134 -11 52 -73 38 -73 -16 0 -25 -4 -29 -29 -29 -17
0 -32 4 -35 8 -10 16 16 84 41 109 21 22 31 25 71 20 34 -4 53 -12 70 -33z"/>
</g>
</svg>
