<?xml version="1.0" standalone="no"?>
<!DOCTYPE svg PUBLIC "-//W3C//DTD SVG 20010904//EN"
 "http://www.w3.org/TR/2001/REC-SVG-20010904/DTD/svg10.dtd">
<svg version="1.0" xmlns="http://www.w3.org/2000/svg"
 width="86.000000pt" height="88.000000pt" viewBox="0 0 86.000000 88.000000"
 preserveAspectRatio="xMidYMid meet">
<metadata>
Created by potrace 1.15, written by Peter Selinger 2001-2017
</metadata>
<g transform="translate(0.000000,88.000000) scale(0.100000,-0.100000)"
fill="#000000" stroke="none">
<path d="M32 854 c-22 -15 -22 -15 -22 -408 0 -368 1 -394 18 -409 17 -15 59
-17 404 -17 360 0 386 1 401 18 15 17 17 60 17 410 0 391 0 391 -22 406 -33
23 -763 23 -796 0z m761 -44 c4 0 7 -164 7 -364 0 -316 -2 -365 -15 -370 -9
-3 -174 -5 -368 -3 l-352 2 -3 364 c-1 214 2 367 7 370 6 4 612 5 724 1z"/>
<path d="M610 758 c-11 -18 -21 -37 -23 -41 -1 -4 -25 2 -52 15 -72 33 -221
33 -282 0 -58 -31 -124 -99 -153 -158 -34 -68 -35 -206 -3 -276 50 -109 164
-190 271 -192 l57 -1 0 110 0 109 -37 9 c-47 11 -68 36 -75 84 -8 58 25 93 89
95 26 1 50 0 53 -4 4 -3 -6 -30 -20 -59 -25 -48 -26 -54 -11 -65 13 -9 35 -8
104 8 48 11 115 26 149 33 73 15 83 21 83 43 0 9 -22 84 -48 167 -53 165 -66
181 -102 123z m-127 -62 c25 -7 59 -23 76 -35 l31 -22 25 25 c13 13 26 22 29
18 6 -11 56 -179 56 -189 0 -5 -37 -17 -82 -26 -46 -10 -94 -20 -106 -24 -24
-6 -24 -6 -8 26 21 39 8 67 -39 87 -46 19 -82 17 -133 -6 -49 -22 -72 -64 -72
-132 0 -57 29 -102 79 -124 l41 -18 0 -58 c0 -55 -1 -58 -25 -58 -67 0 -167
77 -207 158 -33 69 -31 169 5 238 63 123 198 180 330 140z"/>
</g>
</svg>
